<svg width="82" height="82" viewBox="0 0 82 82" fill="none" xmlns="http://www.w3.org/2000/svg">
<g filter="url(#filter0_d_1091_3351)">
<rect x="13" y="9" width="56" height="56" rx="12" fill="#7360F2"/>
<path d="M56.7477 19.2604C55.6623 18.2588 51.276 15.0747 41.5059 15.0314C41.5059 15.0314 29.9845 14.3366 24.368 19.4885C21.2415 22.6156 20.1417 27.1913 20.0256 32.8642C19.9096 38.537 19.7595 49.1684 30.0074 52.051H30.0173L30.0107 56.4497C30.0107 56.4497 29.9452 58.2306 31.1178 58.5937C32.5362 59.0342 33.3686 57.6807 34.7227 56.2216C35.466 55.4207 36.4924 54.2442 37.2659 53.3449C44.2745 53.9348 49.6649 52.5865 50.2771 52.3873C51.6922 51.9285 59.6998 50.9027 61.0022 40.272C62.3465 29.3149 60.352 22.3842 56.7477 19.2604Z" fill="white"/>
<path d="M54.469 21.4736C53.5514 20.6399 49.5905 18.1511 41.326 18.1151C41.326 18.1151 31.5395 17.4721 26.7889 21.7751C24.1448 24.3858 23.254 28.268 23.1564 33.0055C23.0587 37.7431 22.5527 46.7935 31.2184 49.201C31.2184 49.201 31.1843 55.92 31.1804 56.5105C31.1804 56.9234 31.2459 57.2059 31.4819 57.2643C31.6516 57.3056 31.9059 57.2177 32.1222 57.0021C33.5079 55.6106 37.9439 50.2589 37.9439 50.2589C43.896 50.6475 48.6316 49.4723 49.1409 49.3058C50.3417 48.9198 56.8365 48.362 57.9357 39.4833C59.0716 30.3313 57.5182 24.0843 54.469 21.4736Z" fill="#7360F2"/>
<path d="M45.5287 32.6164C45.4212 30.4495 44.3205 29.3114 42.2266 29.2021" stroke="white" stroke-width="1.10508" stroke-linecap="round" stroke-linejoin="round"/>
<path d="M48.3639 33.5666C48.4076 31.5478 47.8096 29.8612 46.57 28.5066C45.3246 27.1472 43.6008 26.3987 41.3887 26.2368" stroke="white" stroke-width="1.10508" stroke-linecap="round" stroke-linejoin="round"/>
<path d="M51.2637 34.7021C51.237 31.1989 50.1903 28.44 48.1234 26.4251C46.0566 24.4103 43.4862 23.3921 40.4121 23.3707" stroke="white" stroke-width="1.10508" stroke-linecap="round" stroke-linejoin="round"/>
<path d="M42.3346 40.0169C42.3346 40.0169 43.1113 40.0824 43.5295 39.5672L44.3448 38.5415C44.7381 38.0328 45.6872 37.7084 46.6166 38.2262C47.3131 38.6234 47.9893 39.0552 48.6426 39.5201C49.2594 39.9736 50.5224 41.0276 50.5264 41.0276C51.1281 41.5356 51.267 42.2815 50.8574 43.068C50.8574 43.0726 50.8541 43.0804 50.8541 43.0844C50.4029 43.8665 49.8301 44.5719 49.1571 45.1739C49.1493 45.1779 49.1493 45.1818 49.1421 45.1857C48.5574 45.6743 47.983 45.952 47.4189 46.0188C47.3358 46.0333 47.2514 46.0386 47.1672 46.0345C46.9184 46.0369 46.6709 45.9989 46.4344 45.9218L46.4161 45.8949C45.5469 45.6498 44.0958 45.0363 41.6791 43.7031C40.2807 42.9407 38.9493 42.0612 37.6993 41.0741C37.0727 40.5796 36.4751 40.0496 35.9092 39.4866L35.8489 39.4263L35.7886 39.366L35.7283 39.3057C35.708 39.2861 35.6884 39.2657 35.668 39.2454C35.1051 38.6796 34.575 38.0819 34.0805 37.4554C33.0936 36.2055 32.2141 34.8743 31.4515 33.4762C30.1184 31.0589 29.5049 29.609 29.2597 28.7386L29.2329 28.7203C29.156 28.4837 29.1182 28.2362 29.1208 27.9875C29.1162 27.9033 29.1212 27.8188 29.1359 27.7358C29.2062 27.1725 29.4843 26.5977 29.9702 26.0113C29.9742 26.0041 29.9781 26.0041 29.982 25.9962C30.5839 25.3233 31.2893 24.7507 32.0716 24.2999C32.0755 24.2999 32.0834 24.296 32.088 24.296C32.8745 23.8863 33.6204 24.0253 34.1277 24.6237C34.1317 24.6276 35.1837 25.8907 35.6353 26.5075C36.1001 27.1614 36.532 27.8383 36.9291 28.5354C37.4469 29.4642 37.1225 30.4152 36.6138 30.8072L35.5881 31.6226C35.0703 32.0408 35.1384 32.8175 35.1384 32.8175C35.1384 32.8175 36.6578 38.5677 42.3346 40.0169Z" fill="white"/>
</g>
<defs>
<filter id="filter0_d_1091_3351" x="0" y="0" width="82" height="82" filterUnits="userSpaceOnUse" color-interpolation-filters="sRGB">
<feFlood flood-opacity="0" result="BackgroundImageFix"/>
<feColorMatrix in="SourceAlpha" type="matrix" values="0 0 0 0 0 0 0 0 0 0 0 0 0 0 0 0 0 0 127 0" result="hardAlpha"/>
<feMorphology radius="3" operator="erode" in="SourceAlpha" result="effect1_dropShadow_1091_3351"/>
<feOffset dy="4"/>
<feGaussianBlur stdDeviation="8"/>
<feComposite in2="hardAlpha" operator="out"/>
<feColorMatrix type="matrix" values="0 0 0 0 0.45098 0 0 0 0 0.376471 0 0 0 0 0.94902 0 0 0 0.65 0"/>
<feBlend mode="normal" in2="BackgroundImageFix" result="effect1_dropShadow_1091_3351"/>
<feBlend mode="normal" in="SourceGraphic" in2="effect1_dropShadow_1091_3351" result="shape"/>
</filter>
</defs>
</svg>
