<svg width="82" height="82" viewBox="0 0 82 82" fill="none" xmlns="http://www.w3.org/2000/svg">
<g filter="url(#filter0_d_1091_3335)">
<rect x="13" y="9" width="56" height="56" rx="9.33333" fill="url(#paint0_linear_1091_3335)"/>
<path d="M37.5772 32.0995L35.9095 28.1386C35.77 27.8074 35.4456 27.592 35.0862 27.592C34.0676 27.592 33.0907 27.9967 32.3704 28.717L32.0174 29.0699C31.556 29.5313 31.234 30.1134 31.0882 30.7494L30.9993 31.1375C30.8004 32.0056 30.8404 32.9114 31.1152 33.7586L31.448 34.7847C31.8391 35.9908 32.4405 37.1181 33.2243 38.1147L34.3446 39.539C35.415 40.9 36.6842 42.0919 38.1095 43.0749L39.2002 43.8271C40.2826 44.5736 41.4612 45.1701 42.7037 45.6002L43.9557 46.0336C44.779 46.3185 45.6441 46.464 46.5153 46.464H46.6427C47.4156 46.464 48.1691 46.2217 48.7971 45.7712L48.8586 45.7271C49.8593 45.0092 50.5766 43.9631 50.8857 42.771L51.0249 42.234C51.1209 41.8634 50.9353 41.4777 50.5858 41.3215L46.8958 39.6728C46.3186 39.4149 45.6409 39.5589 45.2186 40.0293L43.8092 41.5988C43.6054 41.8258 43.2741 41.887 43.0026 41.7478L42.0372 41.2527C40.0995 40.259 38.4033 38.8526 37.0679 37.1325L36.0663 35.8423C35.9056 35.6352 35.91 35.3444 36.077 35.1423L37.3578 33.5918C37.703 33.1739 37.7875 32.599 37.5772 32.0995Z" fill="white"/>
<path fill-rule="evenodd" clip-rule="evenodd" d="M24.5358 36.8879C24.5358 40.501 25.6918 43.8441 27.6541 46.5675L26.6572 49.6792L25.8587 52.3582L29.0179 51.5685L29.0284 51.5754L32.0386 50.7625C34.6453 52.4706 37.7625 53.4639 41.1118 53.4639C50.2665 53.4639 57.6878 46.0426 57.6878 36.8879C57.6878 27.7332 50.2665 20.3119 41.1118 20.3119C31.9571 20.3119 24.5358 27.7332 24.5358 36.8879ZM31.5667 54.3946C34.4015 55.9435 37.6538 56.8239 41.1118 56.8239C52.1221 56.8239 61.0478 47.8983 61.0478 36.8879C61.0478 25.8776 52.1221 16.9519 41.1118 16.9519C30.1014 16.9519 21.1758 25.8776 21.1758 36.8879C21.1758 40.5893 22.1845 44.0551 23.9421 47.0255L22.0704 53.3053L20.9551 57.0476L24.7434 56.1005L31.5667 54.3946Z" fill="white"/>
</g>
<defs>
<filter id="filter0_d_1091_3335" x="0" y="0" width="82" height="82" filterUnits="userSpaceOnUse" color-interpolation-filters="sRGB">
<feFlood flood-opacity="0" result="BackgroundImageFix"/>
<feColorMatrix in="SourceAlpha" type="matrix" values="0 0 0 0 0 0 0 0 0 0 0 0 0 0 0 0 0 0 127 0" result="hardAlpha"/>
<feMorphology radius="3" operator="erode" in="SourceAlpha" result="effect1_dropShadow_1091_3335"/>
<feOffset dy="4"/>
<feGaussianBlur stdDeviation="8"/>
<feComposite in2="hardAlpha" operator="out"/>
<feColorMatrix type="matrix" values="0 0 0 0 0.333333 0 0 0 0 0.945098 0 0 0 0 0.435294 0 0 0 0.65 0"/>
<feBlend mode="normal" in2="BackgroundImageFix" result="effect1_dropShadow_1091_3335"/>
<feBlend mode="normal" in="SourceGraphic" in2="effect1_dropShadow_1091_3335" result="shape"/>
</filter>
<linearGradient id="paint0_linear_1091_3335" x1="13" y1="9" x2="69" y2="65" gradientUnits="userSpaceOnUse">
<stop stop-color="#3CE963"/>
<stop offset="1" stop-color="#2AD149"/>
</linearGradient>
</defs>
</svg>
