<svg width="17" height="43" viewBox="0 0 17 43" fill="none" xmlns="http://www.w3.org/2000/svg">
<path d="M16.3536 39.3536C16.5488 39.1583 16.5488 38.8417 16.3536 38.6464L13.1716 35.4645C12.9763 35.2692 12.6597 35.2692 12.4645 35.4645C12.2692 35.6597 12.2692 35.9763 12.4645 36.1716L15.2929 39L12.4645 41.8284C12.2692 42.0237 12.2692 42.3403 12.4645 42.5355C12.6597 42.7308 12.9763 42.7308 13.1716 42.5355L16.3536 39.3536ZM15.6234 0.670665C9.95625 7.14458 3.09451 16.7205 1.08284 24.7271C0.0756417 28.7359 0.256067 32.4719 2.5656 35.2037C4.86586 37.9245 9.15559 39.5 16 39.5V38.5C9.26131 38.5 5.34453 36.9418 3.32926 34.5581C1.32325 32.1853 1.07912 28.8457 2.0527 24.9708C4.0026 17.2101 10.7238 7.78598 16.3759 1.32934L15.6234 0.670665Z" fill="#B2BED2"/>
</svg>
